<svg xmlns="http://www.w3.org/2000/svg" viewBox="0 0 640 420" role="img" aria-label="Abstract landscape illustration">
  <defs>
    <linearGradient id="g1" x1="0" y1="0" x2="1" y2="1">
      <stop offset="0%" stop-color="#fdebd6"/>
      <stop offset="100%" stop-color="#b9d7ea"/>
    </linearGradient>
  </defs>
  <rect width="640" height="420" rx="48" fill="url(#g1)"/>
  <path d="M0 300C92 244 168 228 224 252c76 32 142 44 198 36 61-9 122-43 218-112v244H0Z" fill="#2f5d7c" opacity="0.78"/>
  <path d="M0 334c82-35 147-37 196-6 47 30 90 43 129 39 41-4 98-30 171-80 35-24 86-55 144-94v227H0Z" fill="#8fbc8f" opacity="0.9"/>
  <circle cx="495" cy="96" r="56" fill="#fff" opacity="0.7"/>
</svg>